<svg id="Layer_1" data-name="Layer 1" xmlns="http://www.w3.org/2000/svg" viewBox="0 0 1102 293.16"><defs><style>.cls-1{fill:#fff;stroke:#fff;}.cls-1,.cls-6{stroke-miterlimit:10;}.cls-2,.cls-3{isolation:isolate;}.cls-3{font-size:188.14px;font-family:Arial-BoldMT, Arial;font-weight:700;}.cls-3,.cls-4{fill:#171545;}.cls-5{fill:#68cdee;}.cls-6{fill:none;stroke:#1a1818;stroke-width:0.25px;}</style></defs><title>mylogo</title><rect class="cls-1" x="0.5" y="0.5" width="1101" height="292"/><g id="Group_269" data-name="Group 269"><g id="Rabbil" class="cls-2"><text class="cls-3" transform="translate(508.24 211.41)">Rabbil</text></g><path id="Path_8" data-name="Path 8" class="cls-4" d="M439.37,911h43l-102,291.16h-43Z" transform="translate(-147 -909)"/><g id="Group_7" data-name="Group 7"><path id="Path_9" data-name="Path 9" class="cls-5" d="M268.45,1049.48l68.4-36.15V1013Z" transform="translate(-147 -909)"/><path id="Path_10" data-name="Path 10" class="cls-5" d="M336.85,1101.56V1147L217,1081.23v-4.35l36.06-19.22Z" transform="translate(-147 -909)"/><path id="Path_11" data-name="Path 11" class="cls-5" d="M336.85,968.3V1013l-68.4,36.46L253,1057.63l.07,0L217,1076.88V1034Z" transform="translate(-147 -909)"/><path id="Path_12" data-name="Path 12" class="cls-5" d="M146,1005.37" transform="translate(-147 -909)"/><line id="Line_1" data-name="Line 1" class="cls-6" x1="121.45" y1="140.48" x2="106.09" y2="148.67"/></g><g id="Group_8" data-name="Group 8"><path id="Path_13" data-name="Path 13" class="cls-5" d="M482.55,1013v.3l68.4,36.16Z" transform="translate(-147 -909)"/><path id="Path_14" data-name="Path 14" class="cls-5" d="M482.55,1101.56V1147l119.83-65.73v-4.35l-36.06-19.22Z" transform="translate(-147 -909)"/><path id="Path_15" data-name="Path 15" class="cls-5" d="M482.55,968.3V1013l68.4,36.46,15.44,8.15-.07,0,36.06,19.22V1034Z" transform="translate(-147 -909)"/><line id="Line_2" data-name="Line 2" class="cls-6" x1="419.32" y1="148.67" x2="403.95" y2="140.48"/></g></g><rect class="cls-1" x="496" y="67" width="599" height="153.5"/><path class="cls-4" d="M783.31,1110.3H758.94l-42.83-84.48h-.44v84.48H682V994.22h56.56l32.05,67.64.44.59,32.19-68.23h56.42V1110.3H826.13v-84.48h-.59Z" transform="translate(-147 -909)"/><path class="cls-4" d="M979.72,1110.3H955.35l-42.83-84.48h-.44v84.48H878.41V994.22H935l32,67.64.44.59,32.19-68.23h56.42V1110.3h-33.53v-84.48H1022Z" transform="translate(-147 -909)"/><path class="cls-4" d="M1068.91,994.22h102.34a128.37,128.37,0,0,1,14.62.74,36.15,36.15,0,0,1,12.11,3.62,22.53,22.53,0,0,1,9.38,9q3.62,6.12,3.62,16.17,0,8.85-2.51,14.39a22.13,22.13,0,0,1-5.91,8.27,18,18,0,0,1-6.35,3.55,18.74,18.74,0,0,1-4.58.81v.44a32,32,0,0,1,6.8.82,22.1,22.1,0,0,1,7.53,3.39,19.89,19.89,0,0,1,6.49,8q2.67,5.46,2.66,14.18,0,10.93-3.17,17.5a21.67,21.67,0,0,1-9,9.82,37.64,37.64,0,0,1-13.29,4.28,136.9,136.9,0,0,1-18.39,1H1068.91V994.22Zm34.56,45.78h62.76a9.37,9.37,0,0,0,6.79-2.73,9.94,9.94,0,0,0,2.81-7.46,9.45,9.45,0,0,0-2.66-6.87,8.72,8.72,0,0,0-6.5-2.73h-63.2Zm.59,43.27h65.72a9.85,9.85,0,0,0,6.94-2.44q2.65-2.43,2.66-7.75a9.13,9.13,0,0,0-9.6-9.6h-65.72Z" transform="translate(-147 -909)"/></svg>